# xmcd
#
# Track frame offsets:
#	150
#	22657
#	45637
#	65600
#	89035
#	110130
#	125435
#	146560
#
# Disc length: 2249 seconds
#
# Revision: 0
# Processed by: cddbd v1.5.2PL0 Copyright (c) Steve Scherf et al.
# Submitted via: EasyCDDAExtractor 15.3.0.1
#
DISCID=6f08c708
DTITLE=Rey Ruiz - Ya Ves Quien Soy...
DYEAR=1998
DGENRE=Latin
TTITLE0=Yo La Amaba Y La Amaba
TTITLE1=Ya Ves Quien Soy
TTITLE2=A Mi Manera
TTITLE3=Siempre Mia
TTITLE4=Laberinto
TTITLE5=Que Tanto Te Extraño
TTITLE6=Desde Mi Balcon
TTITLE7=La Ley De Dios
EXTD=
EXTT0=
EXTT1=
EXTT2=
EXTT3=
EXTT4=
EXTT5=
EXTT6=
EXTT7=
PLAYORDER=
